<?xml version="1.0" encoding="UTF-8" standalone="no"?>
<svg
   version="1.0"
   width="1052.2347pt"
   height="1441.0596pt"
   viewBox="0 0 1052.2347 1441.0596"
   preserveAspectRatio="xMidYMid"
   id="svg6"
   sodipodi:docname="test.svg"
   xml:space="preserve"
   inkscape:version="1.3 (0e150ed6c4, 2023-07-21)"
   inkscape:export-filename="test.png"
   inkscape:export-xdpi="96"
   inkscape:export-ydpi="96"
   xmlns:inkscape="http://www.inkscape.org/namespaces/inkscape"
   xmlns:sodipodi="http://sodipodi.sourceforge.net/DTD/sodipodi-0.dtd"
   xmlns="http://www.w3.org/2000/svg"
   xmlns:svg="http://www.w3.org/2000/svg"><defs
     id="defs6" /><sodipodi:namedview
     id="namedview6"
     pagecolor="#ffffff"
     bordercolor="#666666"
     borderopacity="1.0"
     inkscape:showpageshadow="2"
     inkscape:pageopacity="0.0"
     inkscape:pagecheckerboard="0"
     inkscape:deskcolor="#d1d1d1"
     inkscape:document-units="pt"
     showguides="true"
     inkscape:zoom="0.34903846"
     inkscape:cx="133.22314"
     inkscape:cy="833.71901"
     inkscape:window-width="1920"
     inkscape:window-height="1174"
     inkscape:window-x="0"
     inkscape:window-y="0"
     inkscape:window-maximized="1"
     inkscape:current-layer="svg6"
     showgrid="false" /><metadata
     id="metadata1">&#10;Created by potrace 1.16, written by Peter Selinger 2001-2019&#10;</metadata><g
     transform="matrix(0.08166263,0,0,-0.08166263,-110.05472,802.90161)"
     fill="#000000"
     stroke="none"
     id="g6"><path
       d="m 9978,9584 c -121.0131,70.1135 -197.5652,320.5915 -361.1173,227.4283 C 9133.7721,9470.5215 8616.8956,9173.6568 8157.6738,8801.5723 7691.0072,8383.1951 7269.0173,7914.8117 6796,7505 c -626.1555,-51.2103 -1263.9733,10.1426 -1883.0469,-93.1406 -357.0285,-252.852 -651.5597,-609.6442 -1073.7383,-771.9043 -261.1572,-189.9658 -595.9201,-207.7677 -461.7393,184.2115 30.5608,187.4102 61.1216,374.8205 91.6824,562.2308 C 3175.1252,7673.998 2573.523,7257.1922 2298.5084,7266.8094 2306.2113,6940.7965 2519.7774,6647.8496 2510,6320 c -407.4408,23.1476 -838.4108,-77.6524 -1090,-402 -241.586,-400.6739 141.6731,-178 857.3386,-254.8971 3972.7447,0.561 7945.7384,-15.1378 11918.3394,8.5729 220.281,491.8843 -595.951,568.6155 -958.905,645.5859 -305.717,139.2748 -1037.428,-167.4259 -1071.775,252.0401 -144.677,1124.9684 -963.019,1993.866 -1806.825,2678.2755 C 10231.449,9359.7182 10104.724,9471.8591 9978,9584 Z m -230,103 C 9901.6999,9404.6204 9592.925,9374.9528 9326.9952,9146.3386 8909.5097,8860.3815 8453.0438,8619.422 8103.375,8250.25 7993.0385,7680.0755 7627.1722,7522.1746 7580.7175,7510.0364 7373.4875,7506.1255 7166.2456,7502.9506 6959,7500 c 608.112,580.3999 1166.208,1225.4817 1881.1992,1678.8692 280.5598,192.8193 649.7952,455.7132 838.7539,584.0683 34.2501,-8.7522 49.4548,-48.7128 69.0469,-75.9375 z M 9069.1134,8806.9036 C 9510.6453,8640.8304 9622.9761,8054.6729 10036.305,7798 c 341.716,-253.1497 504.196,-784.8268 138.695,-1093 -334.2855,-364.1471 -857.2389,-114.6692 -1255.3145,-20.6562 -521.5449,99.2815 -725.3516,673.59 -806.1561,1135.1654 5.5949,378.5354 262.2607,580.4505 559.8282,782.9733 125.5677,78.5196 252.272,162.7042 395.7558,204.4211 z M 7717,7373 c 427.3613,-273.5493 746.8247,-747.2739 1293.9375,-820.3906 1080.8045,-254.1026 2294.1905,-174.0084 3296.8725,-274.7422 571.466,-62.3184 1184.29,3.5207 1713.19,-257.8672 217.26,-245.9282 -515.195,-119.3247 -801.752,-113.768 -3871.7472,0.9881 -7743.54,0.5323 -11615.248,15.768 290.1044,412.3491 869.1698,237.1793 1294.418,338.0176 753.9334,88.928 1460.1918,459.4009 1975.8008,1014.4824 462.5625,165.1899 987.6898,58.0593 1474.1186,110.9456 439.0846,1.5554 886.3572,44.7328 1321.5953,7.8195 l 24.9327,-10.7349 z"
       id="path1"
       sodipodi:nodetypes="cccccccccccccccccccccccccccccccccscccccccccc" /></g><path
     id="path3"
     style="fill:#000000;stroke:none;stroke-width:0.261682"
     d="m 149.56464,322.40839 c -0.46225,0.16009 -0.57079,2.30102 -0.62842,5.87256 -0.28206,29.06414 -8.14772,44.17957 -46.67724,91.3418 -31.400197,38.44089 -45.767417,63.99944 -46.879397,83.89746 -0.84528,14.50992 4.3687,32.66159 25.40039,87.38525 6.15293,16.13992 11.72508,32.21399 12.15088,35.6792 0.42582,3.4652 5.48118,15.82614 11.096187,27.42774 17.11357,35.54254 31.7372,43.58721 101.56201,57.15966 22.22415,4.44249 43.28692,8.75106 46.46192,9.82325 6.17101,1.65259 6.16989,1.6536 2.50488,6.88623 -1.74299,2.86219 -15.50935,20.1247 -30.32666,38.32763 -31.80251,38.86581 -44.9405,63.97745 -44.30859,84.07618 0.38333,10.9995 5.43977,26.42371 27.54638,87.16115 l 26.85059,73.771 10.80176,10.5483 c 14.29021,14.0135 39.31023,23.8433 78.32519,30.8071 42.92769,7.7676 58.6009,11.8109 57.95362,15.3882 -0.5361,1.5875 -13.40839,18.2465 -29.03028,37.2993 -29.88052,36.4953 -44.51706,61.3157 -47.4624,80.7671 -1.51701,11.1343 -0.33104,15.1588 26.02734,89.1079 27.36538,77.4812 27.45562,77.7265 38.01123,88.3653 15.49805,15.8018 36.58223,24.0018 82.84131,32.5063 24.95675,4.6734 42.8541,8.7116 56.64405,13.128 -2.09633,4.0015 -4.14016,8.3413 -6.22559,13.4912 -8.52419,21.1246 -8.70381,21.6176 -1.94971,13.7724 7.38103,-8.586 15.09526,-14.8806 25.86328,-20.2177 10.7676,5.3371 18.48098,11.6319 25.86182,20.2177 6.7541,7.8452 6.57448,7.3522 -1.94971,-13.7724 -2.08523,-5.1494 -4.12947,-9.4885 -6.22558,-13.4898 13.79018,-4.4166 31.68615,-8.4558 56.64404,-13.1294 46.25908,-8.5045 67.34473,-16.7045 82.84277,-32.5063 10.55561,-10.6388 10.6444,-10.8841 38.00977,-88.3653 26.35838,-73.9491 27.54435,-77.9736 26.02734,-89.1079 -2.94533,-19.4514 -17.58188,-44.2718 -47.4624,-80.7671 -15.62188,-19.0528 -28.49416,-35.7118 -29.03027,-37.2993 -0.64728,-3.5773 15.02592,-7.6206 57.95361,-15.3882 39.01496,-6.9638 64.03643,-16.7935 78.32666,-30.8071 l 10.80029,-10.5483 26.85059,-73.771 c 22.1066,-60.73736 27.16453,-76.16167 27.54786,-87.16115 0.6319,-20.09877 -12.50755,-45.21037 -44.31007,-84.07618 -14.8173,-18.20293 -28.58367,-35.46544 -30.32666,-38.32763 -3.665,-5.23263 -3.66466,-5.23364 2.50635,-6.88623 3.175,-1.07219 24.2363,-5.38076 46.46045,-9.82325 69.82483,-13.57245 84.44843,-21.61712 101.56203,-57.15966 5.615,-11.6016 10.6718,-23.96254 11.0976,-27.42774 0.4258,-3.46521 5.9966,-19.53928 12.1495,-35.6792 21.0316,-54.72366 26.247,-72.87533 25.4018,-87.38525 -1.112,-19.89802 -15.4807,-45.45657 -46.8808,-83.89746 -38.5296,-47.16223 -46.3952,-62.27766 -46.6773,-91.3418 -0.1537,-9.52412 -0.6681,-8.87575 -7.292,12.38379 -8.9735,28.48014 -7.4355,44.91288 6.1948,70.20264 l 9.4527,17.64257 -18.9346,-6.89209 c -17.45892,-6.35453 -19.00087,-7.472 -19.33447,-13.4414 -0.53519,-4.65042 -2.30364,-0.55953 -7.36084,14.86523 -12.75518,39.63516 -5.94111,59.93625 37.54981,113.35987 32.2717,39.872 34.1033,42.48854 30.9727,44.96923 -1.5206,1.1174 -22.4253,5.76175 -46.6392,10.31543 -54.17403,10.35766 -80.04508,20.99184 -93.62111,39.16407 -12.63674,17.12171 -57.5431,139.73686 -59.31591,162.20507 -1.41482,21.48464 13.10889,50.44088 44.0625,87.04834 13.32019,15.43029 26.03637,31.755 28.65087,36.0483 4.75979,7.5804 4.67115,7.8266 -1.58935,9.7251 -3.42091,0.9827 -16.99269,3.8403 -30.04981,6.0498 -38.52317,7.1428 -73.53705,16.1192 -83.12988,21.8174 -4.96409,2.9273 -13.23824,8.8275 -18.24756,13.4092 -8.74391,7.9565 -9.88511,10.3259 -37.71972,86.8008 -28.37167,77.9505 -28.63982,78.689 -26.67627,91.6567 2.83329,20.5245 14.6757,41.5429 43.59521,76.8531 31.6461,38.5304 34.19431,42.2426 30.97412,44.9692 -1.43111,0.8714 -23.58862,5.8962 -49.05468,10.8296 -71.47922,13.5272 -91.69428,26.2198 -105.79102,66.4805 -3.96068,11.6469 -5.01277,16.8332 -2.59717,13.2568 3.6234,-5.3645 4.94329,-5.1634 23.6543,0.8115 l 19.69482,6.3325 -20.1914,8.8037 c -10.38753,4.5425 -18.16813,8.6682 -24.43653,13.4209 -6.26855,-4.753 -14.04997,-8.8782 -24.43798,-13.4209 l -20.18995,-8.8037 19.69483,-6.3325 c 18.71101,-5.9749 20.02943,-6.176 23.65283,-0.8115 2.4156,3.5764 1.36351,-1.6099 -2.59717,-13.2568 -14.09673,-40.2607 -34.31179,-52.9533 -105.79101,-66.4805 -25.46607,-4.9334 -47.62358,-9.9582 -49.05469,-10.8296 -3.22019,-2.7266 -0.67198,-6.4388 30.97412,-44.9692 28.91951,-35.3102 40.76192,-56.3286 43.59521,-76.8531 1.96355,-12.9677 1.69542,-13.7062 -26.67626,-91.6567 -27.8346,-76.4749 -28.97581,-78.8443 -37.71973,-86.8008 -5.00933,-4.5817 -13.282,-10.4819 -18.24609,-13.4092 -9.59284,-5.6982 -44.60673,-14.6745 -83.12989,-21.8174 -13.05713,-2.2095 -26.62888,-5.067 -30.0498,-6.0498 -6.2605,-1.8984 -6.35063,-2.1447 -1.59082,-9.7251 2.61448,-4.2933 15.33067,-20.61807 28.65088,-36.0483 30.95362,-36.60746 45.47731,-65.5637 44.0625,-87.04834 C 315.49153,770.58715 270.58518,647.972 257.94843,630.85029 244.3724,612.67806 218.50282,602.04388 164.3288,591.68622 c -24.21394,-4.55368 -45.12002,-9.19803 -46.64063,-10.31543 -3.13069,-2.48069 -1.29758,-5.09723 30.97413,-44.96923 43.49091,-53.42362 50.30351,-73.72471 37.54834,-113.35987 -5.0572,-15.42476 -6.82419,-19.51565 -7.35938,-14.86523 -0.3336,5.9694 -1.87555,7.08687 -19.33447,13.4414 l -18.93457,6.89209 9.45117,-17.64257 c 13.6303,-25.28976 15.16837,-41.7225 6.19482,-70.20264 -4.13995,-13.28721 -5.89316,-18.52316 -6.66357,-18.25635 z m 28.73291,104.90479 -3.7749,10.28613 -3.93164,10.62012 -32.21338,11.72461 c -19.42614,7.07053 -31.58746,10.38272 -30.55957,8.61621 0.78201,-1.677 5.6547,-8.1846 11.10791,-14.625 9.38671,-10.93534 10.77252,-11.71719 34.58056,-18.99024 z m 695.63819,0 24.79252,7.63183 c 23.808,7.27305 25.1938,8.0549 34.5805,18.99024 5.4533,6.4404 10.3244,12.948 11.1065,14.625 1.0278,1.76651 -11.1335,-1.54568 -30.5596,-8.61621 l -32.21191,-11.72461 -3.93165,-10.62012 z m -709.64649,32.66748 c 0.179,0.4918 -3.79872,6.39635 -8.91651,12.99316 l -9.18457,12.25342 -34.20263,11.61328 -34.448727,11.70264 8.11084,-12.14209 7.95556,-11.80664 35.165037,-12.79834 c 19.42612,-7.07053 35.342,-12.30722 35.521,-11.81543 z m 723.65481,0 c 0.179,-0.49179 16.0963,4.7449 35.5224,11.81543 l 35.1636,12.79834 7.9556,11.80664 8.1123,12.14209 -34.4487,-11.70264 -34.2027,-11.61328 -9.186,-12.25342 c -5.1178,-6.59681 -9.0955,-12.50136 -8.9165,-12.99316 z m -754.74173,40.83398 -11.6206,13.97608 c -10.75,12.54543 -13.43283,14.35784 -32.031737,21.40576 -11.06552,4.02751 -20.43267,6.60146 -20.70117,5.86377 -0.2685,-0.73771 0.26772,-5.38949 1.04883,-10.1294 l 1.58349,-8.65136 30.984377,-11.27784 z m 785.82863,0 30.7383,11.18701 30.9829,11.27784 1.5849,8.65136 c 0.7811,4.73991 1.3159,9.39169 1.0474,10.1294 -0.2685,0.73769 -9.6356,-1.83626 -20.7012,-5.86377 -18.5988,-7.04792 -21.2802,-8.86033 -32.0302,-21.40576 z M 98.230653,542.56562 c 0.79017,-0.0526 1.242,0.0437 1.27002,0.31201 0.4475,1.22949 -2.36799,7.26754 -5.92089,13.57324 l -6.54639,11.85059 -8.20752,-6.48193 c -4.31591,-3.44169 -8.13941,-7.06152 -8.58691,-8.29102 -0.358,-0.9836 6.01224,-4.13779 14.12695,-7.09131 6.08603,-2.21513 11.49426,-3.71369 13.86474,-3.87158 z m 855.773407,0 c 2.3705,0.15789 7.7773,1.65645 13.8633,3.87158 8.1147,2.95352 14.4864,6.10771 14.1284,7.09131 -0.4475,1.2295 -4.2723,4.84933 -8.5883,8.29102 l -8.2076,6.48193 -6.5463,-11.85059 c -3.5529,-6.3057 -6.3684,-12.34375 -5.9209,-13.57324 0.028,-0.26828 0.4813,-0.36464 1.2714,-0.31201 z M 101.66571,606.9748 c 0.4918,-0.179 6.77577,2.54587 13.90869,6.07617 l 13.17041,6.3457 -15.24609,5.54883 -15.246087,5.55029 1.3374,-11.62646 c 0.735887,-6.39431 1.829767,-11.80503 2.075677,-11.89453 z m 848.90185,0 c 0.2459,0.0895 1.3398,5.50022 2.0757,11.89453 l 1.3389,11.62646 -15.2461,-5.55029 -15.2461,-5.54883 13.1704,-6.3457 c 7.1329,-3.5303 13.4154,-6.25517 13.9072,-6.07617 z m -796.34325,18.51709 c 2.73112,0.25909 5.77066,0.77051 9.57715,1.47363 l 16.38867,2.94727 -27.76319,10.93945 c -15.40222,5.88442 -29.41937,10.9862 -31.40918,10.875 -1.98979,-0.1112 -6.61758,-2.88134 -10.26269,-6.01025 l -6.70899,-6.1919 21.63868,-7.875 c 14.93843,-5.43715 20.34618,-6.93549 28.53955,-6.1582 z m 743.78615,0 c 8.1933,-0.77729 13.5997,0.72105 28.5381,6.1582 l 21.6401,7.875 -6.709,6.1919 c -3.6451,3.12891 -8.2743,5.89905 -10.2641,6.01025 -1.9898,0.1112 -16.0055,-4.99058 -31.4078,-10.875 l -27.7646,-10.93945 16.3887,-2.94727 c 3.8065,-0.70312 6.8475,-1.21454 9.5786,-1.47363 z m -699.68703,7.56738 15.1582,3.39404 15.00293,3.7295 -34.89551,13.53515 c -34.64933,13.44677 -34.98409,13.29139 -46.99072,10.14258 -6.8418,-1.96539 -12.61012,-4.04395 -13.05762,-5.27344 -0.358,-0.98361 14.12644,-7.09099 32.07715,-13.62451 z m 655.58789,0 32.70414,11.90332 c 17.9507,6.53352 32.4366,12.6409 32.0786,13.62451 -0.4475,1.22949 -6.2158,3.30805 -13.0576,5.27344 -12.0067,3.14881 -12.3429,3.30419 -46.99223,-10.14258 l -34.89551,-13.53515 15.00293,-3.7295 z m -608.12109,13.35498 7.51464,5.34082 c 4.38283,2.86041 8.02691,5.99032 8.29541,6.72803 0.26851,0.7377 -10.52802,5.50292 -23.80664,10.33594 -23.60642,8.59204 -25.17192,8.88275 -41.98535,5.53418 l -17.39355,-3.41602 33.68847,-12.26074 z m 560.65283,0 33.68847,12.26221 33.68848,12.26074 -17.39501,3.41602 c -16.81344,3.34857 -18.37893,3.05786 -41.98536,-5.53418 -13.27862,-4.83302 -24.07515,-9.59824 -23.80664,-10.33594 0.2685,-0.73771 3.91405,-3.86762 8.29687,-6.72803 z m -537.1626,20.89453 c 1.28575,-0.12858 2.19411,-0.0625 2.58545,0.24756 2.035,1.76559 2.01571,16.2534 -0.0835,24.25781 -0.82629,3.0855 -5.31937,2.21511 -16.87939,-2.76709 -8.87682,-3.73099 -17.06035,-6.32285 -18.04395,-5.96484 -1.22949,0.4475 -2.6609,-0.42283 -3.1084,-1.65234 -1.01807,-2.79712 26.52954,-13.22103 35.52979,-14.1211 z m 513.67236,0 c 9.00025,0.90007 36.54786,11.32398 35.52979,14.1211 -0.4475,1.22951 -1.87891,2.09984 -3.1084,1.65234 -0.9836,-0.35801 -9.16566,2.23385 -18.04248,5.96484 -11.56002,4.9822 -16.05457,5.85259 -16.88086,2.76709 -2.09921,-8.00441 -2.11703,-22.49222 -0.082,-24.25781 0.39134,-0.31009 1.29823,-0.37614 2.58398,-0.24756 z m -497.40674,67.67285 c 1.96721,-0.716 19.05258,18.68491 18.53907,21.09961 -0.80369,3.91271 -36.95026,17.06878 -38.11377,13.87207 -0.537,-1.47538 0.0889,-2.81763 1.31836,-3.26513 0.98361,-0.358 5.58696,-7.602 9.98877,-16.16602 4.1559,-8.47452 8.02167,-15.45103 8.26757,-15.54053 z m 481.14258,0 c 0.2459,0.0895 4.11167,7.06601 8.26758,15.54053 4.40181,8.56402 9.00516,15.80802 9.98877,16.16602 1.22949,0.4475 1.85536,1.78975 1.31836,3.26513 -1.16351,3.19671 -37.31155,-9.95936 -38.11523,-13.87207 -0.51351,-2.4147 16.57331,-21.81561 18.54052,-21.09961 z m -464.63379,34.64795 c 0.2685,0.7377 -0.51293,5.47842 -2.03173,10.48682 l -2.32178,8.9209 -33.68848,12.26074 -33.68848,12.26221 11.12989,-13.79737 c 10.72741,-13.37262 12.11379,-14.15551 35.72021,-22.74755 13.27861,-4.83302 24.61187,-8.12345 24.88037,-7.38575 z m 448.12354,0 c 0.2685,-0.7377 11.60323,2.55273 24.88183,7.38575 23.60643,8.59204 24.99135,9.37493 35.71875,22.74755 l 11.12989,13.79737 -33.68848,-12.26221 -33.68848,-12.26074 -2.32177,-8.9209 c -1.51881,-5.0084 -2.30024,-9.74912 -2.03174,-10.48682 z m -461.72901,35.30567 -9.18457,12.25488 -9.3413,12.58887 -33.19629,12.08349 -32.95166,11.99268 3.10547,-7.53516 c 6.85898,-15.58482 11.82222,-18.78367 47.92529,-30.53173 z m 475.33448,0 33.64453,10.85303 c 36.10306,11.74806 41.06484,14.94693 47.92383,30.53173 l 3.10547,7.53516 -32.9502,-11.99268 -33.19775,-12.08349 -9.34131,-12.58887 z M 256.737,844.04658 c 0.2685,0.73771 -4.20066,6.82071 -10.05615,13.68603 -9.94541,11.69562 -11.9799,12.9927 -31.92041,19.41504 l -21.41602,6.95947 1.96436,-9.90527 2.05371,-9.65772 29.50781,-10.74023 c 16.22942,-5.90702 29.6877,-10.24913 29.8667,-9.75732 z m 538.75928,0 c 0.179,-0.4918 13.63729,3.85033 29.8667,9.75732 l 29.50782,10.74023 2.05371,9.65772 1.96435,9.90527 -21.41602,-6.95947 c -19.94051,-6.42239 -21.97353,-7.71945 -31.91894,-19.41504 -5.8555,-6.86529 -10.32612,-12.94833 -10.05762,-13.68603 z m -570.09229,40.92334 -6.00878,13.32568 c -3.19491,7.28931 -6.25674,13.4162 -6.74854,13.5952 -0.2459,0.089 -4.56193,-3.35154 -9.23584,-7.77684 l -8.49756,-8.04639 15.2461,-5.54883 z m 601.4253,0 15.24609,5.54882 15.2461,5.54883 -8.49902,8.04639 c -4.67392,4.42529 -8.98994,7.86634 -9.23585,7.77684 -0.4918,-0.179 -3.55216,-6.30581 -6.74707,-13.5952 z m -600.1084,66.35448 c 1.56492,-0.2911 25.44508,10.2329 25.89258,11.4624 0.26852,0.7378 -6.19095,3.6456 -14.30567,6.5991 -8.11471,2.9535 -15.02271,4.6324 -15.47021,3.4029 -0.35799,-0.9836 0.24351,-6.2158 1.3374,-11.6265 1.18339,-5.1648 2.3,-9.7484 2.5459,-9.8379 z m 598.7915,0 c 0.2459,0.09 1.3625,4.6731 2.5459,9.8379 1.0939,5.4107 1.69687,10.6429 1.33887,11.6265 -0.4475,1.2295 -7.35551,-0.4494 -15.47022,-3.4029 -8.11471,-2.9535 -14.57562,-5.8614 -14.30713,-6.5991 0.4475,-1.2295 24.32767,-11.7535 25.89258,-11.4624 z m -554.36572,16.3784 c 5.11678,-0.5744 9.62661,0.1496 17.3291,1.8018 l 16.56738,3.4394 -30.73681,11.187 -30.98291,11.2764 -6.77637,-5.6089 c -3.64512,-3.1289 -7.04402,-6.3478 -7.3125,-7.0854 -0.26849,-0.7377 9.05308,-4.966 20.9458,-9.0161 10.12666,-3.5466 15.84953,-5.4198 20.96631,-5.9942 z m 509.94141,0 c 5.11678,0.5744 10.83965,2.4476 20.96631,5.9942 11.89271,4.0501 21.2143,8.2783 20.9458,9.0161 -0.2685,0.7376 -3.66885,3.9565 -7.31397,7.0854 l -6.7749,5.6089 -30.98438,-11.2764 -30.73681,-11.1884 16.56738,-3.438 c 7.70247,-1.6522 12.21378,-2.3762 17.33057,-1.8018 z m -455.25147,8.8111 15.24903,3.6401 14.91357,3.4834 -34.89551,13.5366 c -34.64937,13.4467 -35.47772,13.4689 -47.14892,10.4766 -6.50642,-1.809 -12.85533,-3.9536 -14.04053,-4.9146 -1.09573,-0.7151 13.29935,-7.0685 31.98779,-13.8706 z m 400.56006,0 33.93457,12.3515 c 18.68844,6.8021 33.08497,13.1555 31.98926,13.8706 -1.1852,0.961 -7.53557,3.1056 -14.04199,4.9146 -11.67122,2.9924 -12.49811,2.9702 -47.14746,-10.4766 l -34.89551,-13.5366 14.91357,-3.4834 z m -358.9043,12.687 9.74854,5.3628 9.59326,5.6982 -24.81445,9.8672 c -24.07562,9.5983 -25.39457,9.7995 -41.11231,7.166 -8.89848,-1.4952 -16.23152,-3.2819 -16.5,-4.0195 -0.17902,-0.4919 13.90487,-6.1743 31.36377,-12.5288 z m 317.25,0 31.72119,11.5459 c 17.45891,6.3545 31.54133,12.037 31.36231,12.5288 -0.26848,0.7377 -7.60152,2.5243 -16.5,4.0195 -15.71773,2.6335 -17.03669,2.4323 -41.11231,-7.166 l -24.81298,-9.8672 9.59179,-5.6982 z M 396.612,1010.8791 c 1.03505,-0.037 1.64993,0.1219 1.78418,0.4907 1.70053,4.6722 -1.93765,26.0464 -4.17334,26.0244 -1.40851,-0.044 -10.01683,-3.0372 -19.56445,-7.081 l -16.99365,-6.9038 19.91748,-7.2495 c 9.03684,-3.2892 15.92465,-5.1688 19.02978,-5.2808 z m 259.01074,0 c 3.10514,0.112 9.99149,1.9916 19.02832,5.2808 l 19.91749,7.2495 -16.99219,6.9038 c -9.54762,4.0438 -18.15595,7.0367 -19.56446,7.081 -2.23568,0.022 -5.87386,-21.3522 -4.17334,-26.0244 0.13425,-0.3688 0.74914,-0.5281 1.78418,-0.4907 z m -246.00585,68.811 c 2.70489,-0.9845 13.88528,8.3121 16.77099,13.9453 2.46081,5.2308 1.56685,5.8342 -16.85303,13.3741 l -19.40332,7.8984 9.04981,-17.2178 c 4.871,-9.5702 9.78735,-17.4855 10.43555,-18 z m 233.00097,0 c 0.6482,0.5144 5.56454,8.4298 10.43555,18 l 9.04834,17.2178 -19.40332,-7.8984 c -18.41987,-7.5399 -19.31384,-8.1432 -16.85303,-13.3741 2.88571,-5.6331 14.06756,-14.9298 16.77246,-13.9453 z m -215.6206,33.2168 c 0.35799,0.9835 -1.07047,6.2384 -3.4834,11.8506 l -3.86572,10.0386 -32.23536,10.8984 -32.23535,10.897 11.62207,-13.9761 c 10.97329,-13.4622 12.6054,-14.3347 35.47412,-22.6582 13.27862,-4.8331 24.36561,-8.034 24.72364,-7.0503 z m 198.23877,0 c 0.35803,-0.9837 11.44648,2.2172 24.72509,7.0503 22.86873,8.3235 24.50084,9.196 35.47412,22.6582 l 11.62061,13.9761 -32.23535,-10.897 -32.23535,-10.8984 -3.86426,-10.0386 c -2.41293,-5.6122 -3.84285,-10.8671 -3.48486,-11.8506 z m -211.24073,33.1363 c 0.17902,0.4918 -3.79875,6.3962 -8.9165,12.9931 l -9.18457,12.2534 -34.20264,11.6133 -34.44873,11.7027 8.11231,-12.1421 7.95556,-11.8067 35.16358,-12.7983 c 19.42613,-7.0705 35.34198,-12.3072 35.52099,-11.8154 z m 224.24268,0 c 0.17901,-0.4918 16.09633,4.7449 35.52246,11.8154 l 35.16357,12.7983 7.95557,11.8067 8.11231,12.1421 -34.44874,-11.7027 -34.20263,-11.6133 -9.18604,-12.2534 c -5.11775,-6.5969 -9.09552,-12.5013 -8.9165,-12.9931 z m -255.23877,41.08 -11.71143,13.73 c -10.66055,12.7913 -13.34332,14.6037 -32.03173,21.4058 -11.06552,4.0275 -20.43123,6.6013 -20.69971,5.8637 -0.26852,-0.7378 0.26625,-5.388 1.04736,-10.1279 l 1.58496,-8.6528 30.98291,-11.2778 z m 286.23633,0 30.82617,10.941 30.98437,11.2778 1.58497,8.6528 c 0.7811,4.7399 1.31588,9.3901 1.04736,10.1279 -0.26848,0.7376 -9.63565,-1.8362 -20.70117,-5.8637 -18.68841,-6.8021 -21.37119,-8.6145 -32.03174,-21.4058 z m -321.29883,41.5049 c 0.79016,-0.053 1.242,0.044 1.27002,0.312 0.44754,1.2296 -2.36655,7.2661 -5.91943,13.5718 l -6.54786,11.8521 -8.20752,-6.482 c -4.31592,-3.4418 -8.13937,-7.0614 -8.58691,-8.291 -0.35799,-0.9836 6.01225,-4.1378 14.12695,-7.0913 6.08604,-2.2151 11.49427,-3.7136 13.86475,-3.8716 z m 356.36133,0 c 2.37048,0.158 7.77724,1.6565 13.86328,3.8716 8.1147,2.9535 14.48494,6.1077 14.12695,7.0913 -0.44754,1.2296 -4.27099,4.8492 -8.58691,8.291 l -8.20752,6.482 -6.54639,-11.8521 c -3.55288,-6.3057 -6.36844,-12.3422 -5.9209,-13.5718 0.028,-0.2682 0.48133,-0.3646 1.27149,-0.312 z m -352.92627,64.4092 c 0.4918,-0.179 6.77577,2.5459 13.90869,6.0762 l 13.17041,6.3457 -15.24609,5.5488 -15.2461,5.5503 1.3374,-11.6265 c 0.73589,-6.3943 1.82979,-11.8055 2.07569,-11.8945 z m 349.48974,0 c 0.2459,0.09 1.3398,5.5002 2.07569,11.8945 l 1.3374,11.6265 -15.24463,-5.5503 -15.24609,-5.5488 13.17041,-6.3457 c 7.13292,-3.5303 13.41542,-6.2552 13.90722,-6.0762 z m -295.02832,17.9854 c 2.55717,0.2832 5.36657,0.8274 8.90479,1.5585 l 15.15967,3.3941 -27.76465,10.9394 c -15.40226,5.8843 -29.41939,10.9861 -31.40918,10.875 -1.98982,-0.1113 -6.6176,-2.8813 -10.2627,-6.0102 l -6.70898,-6.1919 22.9585,-8.0772 c 16.04498,-5.8399 21.45105,-7.3375 29.12255,-6.4877 z m 240.5669,0 c 7.6715,-0.8498 13.07903,0.6478 29.12402,6.4877 l 22.9585,8.0772 -6.70899,6.1919 c -3.64509,3.1289 -8.27434,5.8989 -10.26416,6.0102 -1.98978,0.1111 -16.00546,-4.9907 -31.40771,-10.875 l -27.76465,-10.9394 15.1582,-3.3941 c 3.53822,-0.7311 6.34762,-1.2753 8.90479,-1.5585 z m -194.70703,9.0834 c 3.72161,-0.1307 6.77155,0.7175 11.65136,2.0743 7.42308,2.0322 13.43807,4.0201 13.70655,4.7578 0.17902,0.4918 -15.62593,6.8002 -34.80616,13.7812 l -35.40966,12.8892 -12.72217,-5.1167 -12.63281,-4.8692 34.42529,-12.5302 c 21.51628,-7.8313 29.58491,-10.7684 35.7876,-10.9864 z m 148.84717,0 c 6.20268,0.218 14.27131,3.1551 35.78759,10.9864 l 34.42676,12.5302 -12.63428,4.8692 -12.72216,5.1167 -35.40967,-12.8892 c -19.18022,-6.981 -34.98517,-13.2894 -34.80616,-13.7812 0.26848,-0.7377 6.28348,-2.7256 13.70655,-4.7578 4.87981,-1.3568 7.92975,-2.205 11.65137,-2.0743 z m -105.11573,14.1651 c 2.86807,0.017 4.6015,1.0834 7.31836,2.8096 4.29335,2.6146 7.93739,5.7428 8.29541,6.7265 0.44747,1.2294 -10.01386,6.1519 -23.29248,10.9849 -22.71229,7.9882 -24.76943,8.458 -41.73926,5.4448 l -17.88574,-3.2373 33.68848,-12.2607 c 20.90153,-7.6075 28.83512,-10.4956 33.61523,-10.4678 z m 61.38428,0 c 4.78011,-0.028 12.71517,2.8603 33.6167,10.4678 l 33.68848,12.2607 -17.88721,3.2373 c -16.96982,3.0132 -19.02697,2.5434 -41.73926,-5.4448 -13.27862,-4.833 -23.73995,-9.7555 -23.29248,-10.9849 0.35802,-0.9837 4.00353,-4.1119 8.29688,-6.7265 2.71686,-1.7262 4.44882,-2.7929 7.31689,-2.8096 z" /><path
     id="path3-6"
     style="fill:#000000;stroke:none;stroke-width:0.261682"
     d="M 252.47813,1.1422301e-8 C 251.71511,0.16519901 251.31475,0.29361901 250.53683,0.46078601 202.00998,10.892223 174.83148,21.891673 161.54207,36.742873 c -6.19301,6.88799 -11.65116,17.70457 -19.19264,38.21133 l 18.33002,14.64562 c 4.52397,1.66643 8.40733,3.31093 9.96724,4.39567 0.65015,0.45214 0.94304,0.80942 0.79744,1.03652 -0.10558,0.31434 -1.38254,0.96922 -2.12323,1.4723 l 33.47515,26.746537 c 4.80793,-1.06965 4.95554,-1.24144 11.09812,-2.59076 67.32519,-14.58948 85.3199,-26.197247 100.09583,-65.124217 0.94693,-2.53648 1.01777,-3.07343 1.71452,-5.01821 l -12.14447,-9.7034 c -2.58159,-0.75916 -5.55277,-1.71113 -9.53587,-3.05351 l -19.09481,-6.43482 10.90604,-4.67359 z M 305.14156,53.933503 l -9.36993,5.67969 -9.70085,5.84278 -32.48545,-10.94826 c -19.5902,-6.6023 -31.15878,-11.60592 -29.25307,-12.34438 1.65776,-0.82201 9.52671,-2.86448 17.80723,-4.49206 14.1594,-2.68389 15.73015,-2.42967 38.87015,6.74964 z m -31.33559,16.77729 c -0.16703,0.49599 -6.96047,2.62594 -15.07658,4.58509 l -14.82426,3.83983 -33.97004,-12.27698 -34.2181,-12.36077 13.91589,-4.4231 13.58521,-4.25796 35.46166,11.9519 c 19.59023,6.6022 35.29336,12.44605 35.12622,12.94199 z m -49.77595,12.49661 -17.80271,3.66505 c -16.2295,3.09079 -19.45684,2.83207 -38.38667,-3.27148 -11.15898,-3.76078 -20.08379,-7.59701 -19.83308,-8.34094 0.25055,-0.74399 3.57337,-4.04343 7.14234,-7.25891 l 6.63744,-5.77045 31.2464,10.53016 z" /></svg>
